# xmcd CD database file
#
# Track frame offsets:
#	150
#	16866
#	25979
#	36981
#	50572
#	65844
#	76612
#	93929
#	109063
#	123772
#	138799
#	152967
#	166020
#	181445
#	195266
#
# Disc length: 2789 seconds
#
# Revision: 0
# Processed by: cddbd v1.5.2PL0 Copyright (c) Steve Scherf et al.
# Submitted via: CDex 1.70beta2
#
DISCID=b50ae30f
DTITLE=Anneli Sari - Tähtisarja - 30 suosikkia CD1
DYEAR=2007
DGENRE=Iskelmä
TTITLE0=Liian nuori rakkauteen
TTITLE1=Sait multa kukkaset toukokuun
TTITLE2=Tummanpunainen ruusu
TTITLE3=Sirpale onnea
TTITLE4=Muistojeni ruusut
TTITLE5=Ken oli hän
TTITLE6=Näin tietäni käyn
TTITLE7=Rakkaus  on aito vain kerran
TTITLE8=Jäähyväiset
TTITLE9=Tuulen tapaan (Anneli Sari ja Hortto Kaalo
TTITLE10=Mustalaiskaravaani
TTITLE11=Pieni laulu
TTITLE12=Luonnonlapset (Anneli Sari, Feija ja Taisto)
TTITLE13=Näin on käynnyt sorry
TTITLE14=Musta yö ja meri ääretön
EXTD=YEAR: 2007
EXTT0=
EXTT1=
EXTT2=
EXTT3=
EXTT4=
EXTT5=
EXTT6=
EXTT7=
EXTT8=
EXTT9=
EXTT10=
EXTT11=
EXTT12=
EXTT13=
EXTT14=
PLAYORDER=
